<?xml version="1.0" encoding="utf-8"?>
<!-- Generator: Adobe Illustrator 16.0.0, SVG Export Plug-In . SVG Version: 6.00 Build 0)  -->
<!DOCTYPE svg PUBLIC "-//W3C//DTD SVG 1.1//EN" "http://www.w3.org/Graphics/SVG/1.1/DTD/svg11.dtd">
<svg version="1.1"
	 id="svg2986" xmlns:dc="http://purl.org/dc/elements/1.1/" xmlns:cc="http://creativecommons.org/ns#" xmlns:rdf="http://www.w3.org/1999/02/22-rdf-syntax-ns#" xmlns:svg="http://www.w3.org/2000/svg"
	 xmlns="http://www.w3.org/2000/svg" xmlns:xlink="http://www.w3.org/1999/xlink" x="0px" y="0px" width="402.252px"
	 height="609.745px" viewBox="170.921 221.309 402.252 609.745" enable-background="new 170.921 221.309 402.252 609.745"
	 xml:space="preserve">
<title  id="title3044">eighth note</title>
<g id="layer1">
	<path id="path3" stroke="#000000" stroke-width="5.9241" stroke-linecap="round" stroke-linejoin="round" d="M418.387,231.343
		c14.32,21.136,21.684,46.728,40.137,64.982c21.135,27.834,48.145,50.891,69.088,79.058c15.156,19.681,31.771,40.6,36.074,65.357
		c11.588,31.757,6.557,67.409-5.805,98.498c-13.947,16.766-23.482-4.932-19.59-18.365c0.594-18.535,0.322-37.021-6.785-54.528
		c-6.305-26.255-17.834-51.101-37.137-70.365c-16.771-14.701-35.813-47.095-61.381-35.941c-16.887,10.637-9.529,32.14-11.348,48.712
		c-1.004,101.951-1.07,203.945-2.699,305.867c-1.246,42.809-38.248,71.529-72.881,89.908
		c-30.854,18.566-67.794,28.965-103.608,20.689c-33.304-3.416-67.756-27.729-68.454-63.703
		c-2.22-41.711,27.904-80.553,64.988-97.023c36.404-20.75,82.43-25.246,121.631-10.332c19.156,6.055,24.483-11.721,26.873-28.818
		c2.213-129.771,3.983-259.545,4.436-389.334C392.292,223.029,413.422,219.863,418.387,231.343L418.387,231.343z"/>
</g>
</svg>
