<?xml version="1.0" encoding="utf-8"?>
<!-- Generator: Adobe Illustrator 16.0.0, SVG Export Plug-In . SVG Version: 6.00 Build 0)  -->
<!DOCTYPE svg PUBLIC "-//W3C//DTD SVG 1.1//EN" "http://www.w3.org/Graphics/SVG/1.1/DTD/svg11.dtd">
<svg version="1.1" id="Layer_1" xmlns="http://www.w3.org/2000/svg" xmlns:xlink="http://www.w3.org/1999/xlink" x="0px" y="0px"
	 width="90.5px" height="263.683px" viewBox="0 0 90.5 263.683" enable-background="new 0 0 90.5 263.683" xml:space="preserve">
<path id="path1981" d="M26.5,247.851c40-31.26-37.238-44.91-13.5,3c5.182,10.46,55.5,36.51,55.5-40c0-57.5-35-130.5-35-159.5
	s23-44.5,23-6S0,116.851,0,156.851c0,66.03,90.5,67.03,90.5,18c0-45.5-42.327-46.9-56-35.5c-19.514,16.27-12.443,47.9,10.5,50
	c-33.656-43.109,31.7-54.41,36-18c4.73,40.03-69.5,41.16-69.5-7.5c0-38.5,61.27-77.6,58.5-115.5c-4-54.691-39.861-71.599-44-5
	c-2.91,46.32,34.83,105.02,36.5,170.5C63.57,255.661,32.182,266.7,26.5,247.851z"/>
</svg>
